<?xml version="1.0" standalone="no"?>
<!DOCTYPE svg PUBLIC "-//W3C//DTD SVG 20010904//EN"
 "http://www.w3.org/TR/2001/REC-SVG-20010904/DTD/svg10.dtd">
<svg version="1.0" xmlns="http://www.w3.org/2000/svg"
 width="512.000000pt" height="512.000000pt" viewBox="0 0 512.000000 512.000000"
 preserveAspectRatio="xMidYMid meet">

<g transform="translate(0.000000,512.000000) scale(0.100000,-0.100000)"
fill="#ffffff" stroke="none">
<path d="M143 3934 c-47 -12 -95 -51 -121 -99 -16 -27 -17 -135 -20 -1249 -3
-1373 -7 -1295 69 -1360 26 -22 58 -38 88 -44 27 -5 1034 -8 2428 -6 2337 3
2382 3 2420 22 43 23 63 42 89 92 18 34 19 83 19 1270 0 1187 -1 1236 -19
1270 -26 50 -46 69 -89 92 -37 19 -83 19 -2429 21 -1740 2 -2403 -1 -2435 -9z
m4617 -263 c61 -32 97 -67 128 -126 l27 -50 0 -935 0 -935 -22 -41 c-34 -64
-71 -103 -127 -132 l-51 -27 -2130 -3 c-2352 -2 -2188 -7 -2277 61 -27 20 -54
55 -73 92 l-30 59 0 926 0 926 30 59 c35 69 84 111 157 136 51 18 140 18 2188
16 l2135 -2 45 -24z"/>
<path d="M419 3523 c-62 -38 -59 16 -59 -963 0 -988 -4 -929 64 -965 28 -14
220 -16 2148 -13 l2118 3 32 33 33 32 0 910 0 910 -33 32 -32 33 -2123 2
c-1949 2 -2124 1 -2148 -14z m1094 -428 c137 -29 284 -132 352 -249 102 -175
108 -357 17 -537 l-39 -76 54 -56 c59 -61 66 -88 32 -131 -35 -44 -79 -36
-143 24 l-53 51 -76 -41 c-121 -65 -239 -83 -370 -55 -295 62 -487 357 -423
648 25 112 69 191 151 272 137 137 312 190 498 150z m722 -10 l25 -24 0 -341
c0 -384 4 -414 59 -469 57 -57 104 -76 191 -76 110 0 193 46 231 130 17 36 19
71 19 396 0 396 -1 392 67 405 27 5 37 1 63 -25 l31 -31 -3 -373 -3 -372 -32
-66 c-57 -115 -173 -197 -312 -221 -168 -29 -358 67 -432 217 l-24 50 -3 388
-3 387 25 25 c32 32 70 32 101 0z m1018 14 c14 -6 30 -22 36 -36 8 -16 11
-175 11 -509 l0 -486 -29 -29 c-37 -37 -65 -37 -102 0 l-29 29 0 486 c0 507 1
524 44 544 28 14 40 14 69 1z m971 -10 c19 -15 26 -30 26 -55 0 -35 -41 -102
-406 -659 l-132 -200 252 -5 c138 -3 258 -9 267 -13 34 -17 49 -79 26 -108
-28 -37 -49 -39 -385 -39 -318 0 -330 1 -356 21 -19 15 -26 30 -26 54 0 35 26
76 378 615 52 80 110 169 129 198 l34 52 -234 0 c-222 0 -236 1 -261 21 -37
29 -37 89 0 118 26 20 38 21 344 21 306 0 318 -1 344 -21z"/>
<path d="M1275 2930 c-247 -81 -345 -386 -192 -598 106 -149 307 -202 475
-127 l63 28 -55 56 c-68 69 -82 101 -61 140 32 63 81 56 161 -20 l64 -62 27
59 c24 52 28 71 28 154 0 86 -3 101 -32 162 -64 136 -189 219 -338 225 -60 2
-95 -2 -140 -17z"/>
</g>
</svg>
